<svg xmlns="http://www.w3.org/2000/svg" width="1400" height="840" viewBox="0 0 1400 840">
  <defs>
    <linearGradient id="bg" x1="0" y1="0" x2="1" y2="1">
      <stop offset="0%" stop-color="#08101d"/>
      <stop offset="100%" stop-color="#0a1f33"/>
    </linearGradient>
    <linearGradient id="panel" x1="0" y1="0" x2="1" y2="1">
      <stop offset="0%" stop-color="#10243c"/>
      <stop offset="100%" stop-color="#122b47"/>
    </linearGradient>
  </defs>
  <rect width="1400" height="840" fill="url(#bg)"/>
  <rect x="28" y="24" width="240" height="792" rx="16" fill="#111e30" stroke="#274865"/>
  <rect x="300" y="38" width="1070" height="116" rx="16" fill="url(#panel)" stroke="#2dd4bf"/>
  <text x="330" y="90" fill="#f1f7ff" font-size="48" font-family="Segoe UI, Arial" font-weight="700">ResumePilot AI</text>
  <text x="330" y="128" fill="#9dc0df" font-size="22" font-family="Segoe UI, Arial">Home screen with streamlined upload flow and dual analysis modes</text>
  <rect x="300" y="182" width="1070" height="68" rx="12" fill="#14b8a6"/>
  <text x="752" y="225" text-anchor="middle" fill="#073b3a" font-size="30" font-family="Segoe UI, Arial" font-weight="700">Analyze Resume</text>
  <rect x="300" y="274" width="520" height="516" rx="16" fill="#101a2b" stroke="#24425f"/>
  <rect x="850" y="274" width="520" height="516" rx="16" fill="#101a2b" stroke="#24425f"/>
  <text x="330" y="330" fill="#eaf4ff" font-size="28" font-family="Segoe UI, Arial" font-weight="700">Upload Resume</text>
  <text x="330" y="370" fill="#91adc8" font-size="20" font-family="Segoe UI, Arial">Drag-and-drop PDF input</text>
  <text x="880" y="330" fill="#eaf4ff" font-size="28" font-family="Segoe UI, Arial" font-weight="700">Add Job Description</text>
  <text x="880" y="370" fill="#91adc8" font-size="20" font-family="Segoe UI, Arial">Paste text or upload JD PDF</text>
  <circle cx="88" cy="110" r="10" fill="#2dd4bf"/>
  <text x="112" y="118" fill="#d9ebff" font-size="24" font-family="Segoe UI, Arial">Quick Setup</text>
  <rect x="54" y="154" width="188" height="56" rx="10" fill="#15314d"/>
  <text x="148" y="190" text-anchor="middle" fill="#d4ecff" font-size="20" font-family="Segoe UI, Arial">JD Match</text>
  <rect x="54" y="226" width="188" height="56" rx="10" fill="#0f2742" stroke="#2dd4bf"/>
  <text x="148" y="262" text-anchor="middle" fill="#8ff7e4" font-size="20" font-family="Segoe UI, Arial">Resume Health</text>
</svg>
